<svg xmlns="http://www.w3.org/2000/svg" width="32" height="32"><path d="M4.3 31.599c-.107-.092-.213-.207-.32-.322.116.115.213.23.32.322zm-.345-.147c-.109-.104-.218-.207-.32-.322.102.115.211.218.32.322zM31.626 4.966a1.341 1.341 0 00-.936-.38h-6.572v-2.06A2.52 2.52 0 0021.608 0H10.389a2.52 2.52 0 00-2.51 2.526v2.06H1.275C.574 4.586 0 5.159 0 5.869s.57 1.283 1.275 1.283H2.4v22.323a2.52 2.52 0 002.51 2.526h22.537a2.52 2.52 0 002.51-2.526V7.152h.733c.701 0 1.31-.573 1.31-1.283 0-.34-.132-.659-.374-.903zM10.385 2.533h11.211v2.074H10.385V2.533zm17.058 26.938H4.91V7.151h22.533v22.32zM15.982 11.45c-.709 0-1.282.577-1.282 1.29v11.966c0 .713.573 1.29 1.282 1.29s1.282-.577 1.282-1.29V12.74c0-.713-.573-1.29-1.282-1.29zm-6.942 0c-.709 0-1.282.577-1.282 1.29v11.966c0 .713.573 1.29 1.282 1.29s1.282-.577 1.282-1.29V12.74c0-.713-.573-1.29-1.282-1.29zm13.814 0c-.709 0-1.282.577-1.282 1.29v11.966c0 .713.573 1.29 1.282 1.29s1.282-.577 1.282-1.29V12.74c0-.713-.573-1.29-1.282-1.29z"/></svg>